<svg xmlns="http://www.w3.org/2000/svg" viewBox="-45 -110 300 300">
  <rect x="-45" y="-110" width="300" height="300" fill="#000000" />
  
  <g fill="none" stroke="#ffffff" stroke-width="10" stroke-linecap="round" stroke-linejoin="round">
    <path d="M 45 10 L 15 40 L 45 70" />
    <path d="M 165 10 L 195 40 L 165 70" />
  </g>
  
  <g fill="none" stroke="#ffffff" stroke-width="10" stroke-linecap="round">
    <path d="M 150 10 L 125 70" />
  </g>
  
  <g fill="#ffffff">
    <rect x="60" y="10" width="10" height="10" />
    <rect x="70" y="10" width="10" height="10" />
    <rect x="80" y="10" width="10" height="10" />
    <rect x="90" y="10" width="10" height="10" />
    <rect x="100" y="10" width="10" height="10" />
    <rect x="90" y="20" width="10" height="10" />
    <rect x="80" y="30" width="10" height="10" />
    <rect x="70" y="40" width="10" height="10" />
    <rect x="80" y="50" width="10" height="10" />
    <rect x="90" y="60" width="10" height="10" />
    <rect x="60" y="70" width="10" height="10" />
    <rect x="70" y="70" width="10" height="10" />
    <rect x="80" y="70" width="10" height="10" />
    <rect x="90" y="70" width="10" height="10" />
    <rect x="100" y="70" width="10" height="10" />
  </g>
</svg>
